<svg xmlns="http://www.w3.org/2000/svg" xmlns:xlink="http://www.w3.org/1999/xlink" viewBox="0 0 50.32 31.67"><defs><style>.cls-1{fill:url(#linear-gradient);}.cls-2{fill:url(#linear-gradient-2);}.cls-3{fill:#1e2313;}.cls-4{fill:#4e7c39;}.cls-5{fill:#6e9f41;}.cls-6{fill:url(#linear-gradient-3);}.cls-7{fill:#994822;}.cls-8{fill:#f3b37a;}.cls-9{fill:url(#linear-gradient-4);}.cls-10{fill:url(#linear-gradient-5);}.cls-11{fill:url(#linear-gradient-6);}.cls-12{fill:url(#linear-gradient-7);}.cls-13{fill:url(#linear-gradient-8);}.cls-14{fill:url(#linear-gradient-9);}.cls-15{fill:url(#linear-gradient-10);}.cls-16{fill:#a04c23;}.cls-17{fill:#f3a770;}.cls-18{fill:url(#linear-gradient-11);}.cls-19{fill:url(#linear-gradient-12);}.cls-20{fill:url(#linear-gradient-13);}.cls-21{fill:url(#linear-gradient-14);}.cls-22{fill:url(#linear-gradient-15);}.cls-23{fill:url(#linear-gradient-16);}.cls-24{fill:url(#linear-gradient-17);}.cls-25{fill:url(#linear-gradient-18);}.cls-26{fill:url(#linear-gradient-19);}.cls-27{fill:url(#linear-gradient-20);}.cls-28{fill:url(#linear-gradient-21);}.cls-29{fill:url(#linear-gradient-22);}.cls-30{fill:url(#linear-gradient-23);}.cls-31{fill:url(#linear-gradient-24);}.cls-32{fill:url(#linear-gradient-25);}.cls-33{fill:url(#linear-gradient-26);}.cls-34{fill:url(#linear-gradient-27);}.cls-35{fill:url(#linear-gradient-28);}.cls-36{fill:url(#linear-gradient-29);}.cls-37{fill:url(#linear-gradient-30);}.cls-38{fill:url(#linear-gradient-31);}.cls-39{fill:url(#linear-gradient-32);}.cls-40{fill:url(#linear-gradient-33);}.cls-41{fill:url(#linear-gradient-34);}.cls-42{fill:url(#linear-gradient-35);}.cls-43{fill:url(#linear-gradient-36);}.cls-44{fill:url(#linear-gradient-37);}</style><linearGradient id="linear-gradient" y1="22.83" x2="19.5" y2="22.83" gradientUnits="userSpaceOnUse"><stop offset="0" stop-color="#6e7531"/><stop offset="0.29" stop-color="#58692f"/><stop offset="0.52" stop-color="#3f5b2b"/><stop offset="0.71" stop-color="#274922"/><stop offset="1" stop-color="#1e2313"/></linearGradient><linearGradient id="linear-gradient-2" x1="12.42" y1="22.66" x2="21.29" y2="18.75" gradientUnits="userSpaceOnUse"><stop offset="0" stop-color="#1e2313"/><stop offset="0.29" stop-color="#274922"/><stop offset="0.48" stop-color="#3f5b2b"/><stop offset="0.71" stop-color="#58692f"/><stop offset="1" stop-color="#6e7531"/></linearGradient><linearGradient id="linear-gradient-3" x1="11.49" y1="4.1" x2="13.58" y2="4.05" gradientUnits="userSpaceOnUse"><stop offset="0.11" stop-color="#e67d33"/><stop offset="0.4" stop-color="#c04427"/><stop offset="0.52" stop-color="#f4ce95"/><stop offset="0.6" stop-color="#f1be68"/><stop offset="0.69" stop-color="#eca73c"/><stop offset="0.77" stop-color="#e68739"/><stop offset="1" stop-color="#c04427"/></linearGradient><linearGradient id="linear-gradient-4" x1="8.78" y1="8.69" x2="11.04" y2="8.2" xlink:href="#linear-gradient-3"/><linearGradient id="linear-gradient-5" x1="7.24" y1="13.38" x2="9.18" y2="12.37" xlink:href="#linear-gradient-3"/><linearGradient id="linear-gradient-6" x1="14.88" y1="5.35" x2="15.71" y2="7.32" xlink:href="#linear-gradient-3"/><linearGradient id="linear-gradient-7" x1="12.5" y1="9.22" x2="13.79" y2="10.94" xlink:href="#linear-gradient-3"/><linearGradient id="linear-gradient-8" x1="15.35" y1="1.63" x2="17.11" y2="3.01" xlink:href="#linear-gradient-3"/><linearGradient id="linear-gradient-9" x1="10.03" y1="8.71" x2="15.08" y2="8.71" gradientUnits="userSpaceOnUse"><stop offset="0.18" stop-color="#c04427"/><stop offset="0.25" stop-color="#e68639"/><stop offset="0.34" stop-color="#eca73c"/><stop offset="0.43" stop-color="#f1be68"/><stop offset="0.52" stop-color="#f4ce95"/><stop offset="0.6" stop-color="#f1be68"/><stop offset="0.69" stop-color="#eca73c"/><stop offset="0.77" stop-color="#e68739"/><stop offset="1" stop-color="#c04427"/></linearGradient><linearGradient id="linear-gradient-10" x1="13.83" y1="22.74" x2="16.12" y2="22.42" gradientUnits="userSpaceOnUse"><stop offset="0.11" stop-color="#d86c27"/><stop offset="0.4" stop-color="#b14c26"/><stop offset="0.52" stop-color="#f3bc7f"/><stop offset="0.6" stop-color="#f1a044"/><stop offset="0.69" stop-color="#eb8728"/><stop offset="0.77" stop-color="#e77729"/><stop offset="1" stop-color="#b14c26"/></linearGradient><linearGradient id="linear-gradient-11" x1="9.37" y1="22.77" x2="40.87" y2="12.59" gradientUnits="userSpaceOnUse"><stop offset="0" stop-color="#3d5225"/><stop offset="0.09" stop-color="#609741"/><stop offset="0.18" stop-color="#445828"/><stop offset="0.27" stop-color="#3a4f23"/><stop offset="0.59" stop-color="#445325"/><stop offset="0.81" stop-color="#1e2915"/></linearGradient><linearGradient id="linear-gradient-12" x1="32.01" y1="10.28" x2="50.32" y2="10.28" xlink:href="#linear-gradient-2"/><linearGradient id="linear-gradient-13" x1="32" y1="11.58" x2="42.4" y2="13.86" gradientUnits="userSpaceOnUse"><stop offset="0" stop-color="#435e2c"/><stop offset="0.23" stop-color="#56883d"/><stop offset="0.52" stop-color="#3f5b2b"/><stop offset="0.67" stop-color="#274922"/><stop offset="0.75" stop-color="#23391a"/><stop offset="0.81" stop-color="#223419"/><stop offset="0.88" stop-color="#233a1a"/><stop offset="0.94" stop-color="#24401c"/><stop offset="1" stop-color="#2e4f25"/></linearGradient><linearGradient id="linear-gradient-14" x1="37.42" y1="4.02" x2="39.54" y2="4.14" xlink:href="#linear-gradient-3"/><linearGradient id="linear-gradient-15" x1="39.99" y1="8.17" x2="42.19" y2="8.71" xlink:href="#linear-gradient-3"/><linearGradient id="linear-gradient-16" x1="41.75" y1="12.48" x2="43.53" y2="13.62" xlink:href="#linear-gradient-3"/><linearGradient id="linear-gradient-17" x1="37" y1="10.69" x2="38.25" y2="8.93" xlink:href="#linear-gradient-3"/><linearGradient id="linear-gradient-18" x1="33.79" y1="3.01" x2="35.66" y2="1.55" xlink:href="#linear-gradient-3"/><linearGradient id="linear-gradient-19" x1="35.15" y1="7.36" x2="36.12" y2="5.2" xlink:href="#linear-gradient-3"/><linearGradient id="linear-gradient-20" x1="35.83" y1="7.51" x2="40.43" y2="7.51" xlink:href="#linear-gradient-9"/><linearGradient id="linear-gradient-21" x1="13.86" y1="25.6" x2="14.1" y2="27.55" xlink:href="#linear-gradient-3"/><linearGradient id="linear-gradient-22" x1="17.83" y1="27.71" x2="18.67" y2="29.93" xlink:href="#linear-gradient-3"/><linearGradient id="linear-gradient-23" x1="22" y1="28.7" x2="23.31" y2="30.81" xlink:href="#linear-gradient-3"/><linearGradient id="linear-gradient-24" x1="17.69" y1="25.09" x2="19.67" y2="23.82" xlink:href="#linear-gradient-3"/><linearGradient id="linear-gradient-25" x1="21.67" y1="26.15" x2="23.62" y2="24.46" xlink:href="#linear-gradient-3"/><linearGradient id="linear-gradient-26" x1="10.81" y1="24.62" x2="11.29" y2="22.43" xlink:href="#linear-gradient-3"/><linearGradient id="linear-gradient-27" x1="39.68" y1="22.46" x2="40.07" y2="24.68" xlink:href="#linear-gradient-3"/><linearGradient id="linear-gradient-28" x1="36.8" y1="27.64" x2="37.07" y2="25.41" xlink:href="#linear-gradient-3"/><linearGradient id="linear-gradient-29" x1="32.32" y1="29.64" x2="33.16" y2="27.59" xlink:href="#linear-gradient-3"/><linearGradient id="linear-gradient-30" x1="27.63" y1="30.71" x2="29.06" y2="28.53" xlink:href="#linear-gradient-3"/><linearGradient id="linear-gradient-31" x1="37.19" y1="18.35" x2="39.33" y2="17.79" xlink:href="#linear-gradient-3"/><linearGradient id="linear-gradient-32" x1="34.93" y1="21.51" x2="37.37" y2="21.96" xlink:href="#linear-gradient-3"/><linearGradient id="linear-gradient-33" x1="31.35" y1="23.88" x2="33.42" y2="25.24" xlink:href="#linear-gradient-3"/><linearGradient id="linear-gradient-34" x1="27.4" y1="24.53" x2="29.33" y2="26.27" xlink:href="#linear-gradient-3"/><linearGradient id="linear-gradient-35" x1="42.38" y1="18.77" x2="26.58" y2="28.73" xlink:href="#linear-gradient-9"/><linearGradient id="linear-gradient-36" x1="11.86" y1="24.86" x2="31.62" y2="24.86" xlink:href="#linear-gradient-9"/><linearGradient id="linear-gradient-37" x1="41.23" y1="17.92" x2="42.64" y2="19.77" xlink:href="#linear-gradient-3"/></defs><title>bronzeAds-logo</title><g id="Layer_2" data-name="Layer 2"><g id="Layer_1-2" data-name="Layer 1"><path class="cls-1" d="M11.19,22.86c.16.77,3.38-.22,5-1.37,1.47-1,3-1.33,3.24-.83s-.28,1-1.62,1.63c0,0-4.47,1.82-6,2.38A34.64,34.64,0,0,1,.8,26.59a12.75,12.75,0,0,0,6.58-3.76A10.52,10.52,0,0,1,0,23.12c3.34-.07,7-2.28,9.5-4.06Z"/><path class="cls-2" d="M11.19,22.86c.08.78,3.38-.22,5-1.37,1.47-1,2.87-1.19,3.24-.83,0,0-.51-.72-.74-1a24.34,24.34,0,0,0-4.35,1C12.53,21.42,11.15,22.48,11.19,22.86Z"/><path class="cls-3" d="M7.43,22.94a11.56,11.56,0,0,1-3.71.75,10.84,10.84,0,0,1-1.89-.11A8.32,8.32,0,0,1,0,23.12a8.16,8.16,0,0,0,1.84.4,10.63,10.63,0,0,0,1.87.05,11.06,11.06,0,0,0,3.63-.85Z"/><path class="cls-3" d="M12,24.79a33.83,33.83,0,0,1-5.7,1.38c-.91.14-1.83.24-2.74.31s-1.84.12-2.76.11c.92,0,1.84-.07,2.75-.16s1.83-.22,2.73-.38a29.58,29.58,0,0,0,5.32-1.41Z"/><path class="cls-4" d="M16.21,21.49a6.86,6.86,0,0,1,1.32-.74A3.6,3.6,0,0,1,19,20.41a.7.7,0,0,1,.36.12.53.53,0,0,1,.15.35.89.89,0,0,1-.39.64,7.11,7.11,0,0,1-1.3.78v0c.22-.13.43-.26.64-.41a3.77,3.77,0,0,0,.59-.44c.18-.17.34-.35.32-.54a.31.31,0,0,0-.1-.24.55.55,0,0,0-.28-.08,3.4,3.4,0,0,0-1.41.29,6.76,6.76,0,0,0-.69.29c-.23.11-.45.22-.67.35Z"/><path class="cls-5" d="M0,23.12a9.75,9.75,0,0,0,2.57-.44,15.94,15.94,0,0,0,2.43-1A29.26,29.26,0,0,0,9.45,19l.1.13A29.27,29.27,0,0,1,5,21.79a16.46,16.46,0,0,1-2.45.93A10.28,10.28,0,0,1,0,23.12Z"/><path class="cls-5" d="M.8,26.59a14.23,14.23,0,0,0,3.55-1.44,12.21,12.21,0,0,0,1.59-1.06,9.54,9.54,0,0,0,1.38-1.31l.13.1A9.84,9.84,0,0,1,6,24.18a13.11,13.11,0,0,1-1.62,1A14.62,14.62,0,0,1,.8,26.59Z"/><path class="cls-6" d="M13.25,5.87a4.45,4.45,0,0,0-.85-4.7A4.42,4.42,0,0,0,12.47,7Q12.85,6.41,13.25,5.87Z"/><path class="cls-7" d="M13.35,5.58a4.49,4.49,0,0,0,.1-2.33,4.08,4.08,0,0,0-1.06-2.06l0,0a2.62,2.62,0,0,1,.88.87,3.46,3.46,0,0,1,.47,1.16,3.74,3.74,0,0,1,0,1.25,2.75,2.75,0,0,1-.42,1.15Z"/><path class="cls-8" d="M12.41,1.19a5.44,5.44,0,0,0-.6,1.44,5.09,5.09,0,0,0-.17,1.5,5.44,5.44,0,0,0,.23,1.49,3.7,3.7,0,0,0,.28.72,6.13,6.13,0,0,0,.39.7l0,0a4.26,4.26,0,0,1-1.2-2.92,4.32,4.32,0,0,1,1.07-3Z"/><path class="cls-9" d="M10.48,11.27A13,13,0,0,1,11,9.68,4.45,4.45,0,0,0,9.21,5.61a4.42,4.42,0,0,0,1.26,5.71Z"/><path class="cls-7" d="M11,9.42a4.47,4.47,0,0,0-.45-2.13A4,4,0,0,0,9.2,5.62l0,0a2.57,2.57,0,0,1,1,.61,3.34,3.34,0,0,1,.67,1,3.47,3.47,0,0,1,.31,1.12,2.79,2.79,0,0,1-.11,1.15Z"/><path class="cls-8" d="M9.24,5.63a6.31,6.31,0,0,0-.3,1.51,5.62,5.62,0,0,0,.11,1.48A5.92,5.92,0,0,0,9.55,10a4.27,4.27,0,0,0,.4.64,5.69,5.69,0,0,0,.49.61v0A4.3,4.3,0,0,1,8.74,8.69a4.35,4.35,0,0,1,.48-3.08Z"/><path class="cls-10" d="M9.9,13.76A4.4,4.4,0,0,0,7.12,11a4.42,4.42,0,0,0,1.33,4.16Z"/><path class="cls-8" d="M7.14,11a9.66,9.66,0,0,0,.11,1.12,6.33,6.33,0,0,0,.26,1,7.79,7.79,0,0,0,.41,1c.16.32.34.64.54,1l0,0a4.63,4.63,0,0,1-1.23-1.91A4.08,4.08,0,0,1,7.11,11Z"/><path class="cls-7" d="M9.75,13.81a4.57,4.57,0,0,0-1-1.69A4,4,0,0,0,7.12,11a4.49,4.49,0,0,1,2.93,2.68Z"/><path class="cls-11" d="M12.57,7.43A4.43,4.43,0,0,0,18,5.14,4.42,4.42,0,0,0,12.57,7.43Z"/><path class="cls-7" d="M12.57,7.41a4.29,4.29,0,0,0,3.13-.13A4.24,4.24,0,0,0,18,5.14h0a3.22,3.22,0,0,1-.3.78,4.1,4.1,0,0,1-.5.68,4,4,0,0,1-1.38,1,4.15,4.15,0,0,1-1.66.31,3.06,3.06,0,0,1-1.6-.45Z"/><path class="cls-8" d="M18,5.16a5.53,5.53,0,0,0-1.57,0A5.26,5.26,0,0,0,15,5.52a5.5,5.5,0,0,0-1.3.77,4,4,0,0,0-.56.53,6.1,6.1,0,0,0-.51.61h0a4.32,4.32,0,0,1,2.28-2.19A4.26,4.26,0,0,1,18,5.13Z"/><path class="cls-12" d="M11.14,10.44c-.1.31-.19.62-.26.93,0,.12-.06.23-.08.35a4.42,4.42,0,0,0,4.66-3.33A4.44,4.44,0,0,0,11.14,10.44Z"/><path class="cls-7" d="M10.61,11.69a4.33,4.33,0,0,0,3-.75,4.23,4.23,0,0,0,1.8-2.55h0a2.88,2.88,0,0,1-.14.82A3.8,3.8,0,0,1,15,10a3.86,3.86,0,0,1-1.16,1.22,4,4,0,0,1-1.57.64,3.08,3.08,0,0,1-1.65-.12Z"/><path class="cls-8" d="M15.46,8.41a6.47,6.47,0,0,0-1.34.23,6.33,6.33,0,0,0-1.2.5,7.1,7.1,0,0,0-1.07.75,4.25,4.25,0,0,0-.48.47,3.88,3.88,0,0,0-.46.52l0,0a4.54,4.54,0,0,1,1.89-2,4.15,4.15,0,0,1,2.69-.49Z"/><path class="cls-13" d="M14.36,4.58A4.42,4.42,0,0,0,18.06,0,4.43,4.43,0,0,0,14.36,4.58Z"/><path class="cls-7" d="M14.36,4.57A4.3,4.3,0,0,0,17.06,3a4.26,4.26,0,0,0,1-3h0a3.18,3.18,0,0,1,.11.82,4.05,4.05,0,0,1-.12.84,3.77,3.77,0,0,1-.77,1.5A4,4,0,0,1,16,4.25a3.17,3.17,0,0,1-1.62.35Z"/><path class="cls-8" d="M18.07,0a5.42,5.42,0,0,0-1.4.71,5.36,5.36,0,0,0-1.1,1,6.28,6.28,0,0,0-.79,1.29,4.46,4.46,0,0,0-.24.73,4.9,4.9,0,0,0-.16.78h0a4.33,4.33,0,0,1,1-3A4.26,4.26,0,0,1,18.06,0Z"/><path class="cls-14" d="M10,13.67a13.91,13.91,0,0,1,.45-2.4,15,15,0,0,1,1.82-4A24.84,24.84,0,0,1,15,3.75l.06,0a26.92,26.92,0,0,0-2.57,3.55,14.77,14.77,0,0,0-1.63,4,13.7,13.7,0,0,0-.34,2Z"/><path class="cls-8" d="M10,13.67a13.46,13.46,0,0,1,.14-1.41,12.73,12.73,0,0,1,.31-1.39,13.81,13.81,0,0,1,1.08-2.64,16.8,16.8,0,0,1,1.56-2.38c.29-.37.6-.73.91-1.08s.65-.69,1-1h0A22.72,22.72,0,0,0,11.7,8.3a14.8,14.8,0,0,0-1.1,2.6A14.47,14.47,0,0,0,10,13.67Z"/><path class="cls-7" d="M15.1,3.81a23.08,23.08,0,0,0-3,4.44,14.15,14.15,0,0,0-1.51,5.12h0A10.32,10.32,0,0,1,10.59,12a12.61,12.61,0,0,1,.25-1.34,13.23,13.23,0,0,1,.95-2.57,15.69,15.69,0,0,1,1.46-2.3c.28-.36.57-.71.87-1s.62-.66,1-1Z"/><path class="cls-15" d="M15.46,24.67a4.7,4.7,0,0,0,.08-4.33l-2,.71a4.82,4.82,0,0,0,.72,2.69A10.48,10.48,0,0,0,15.46,24.67Z"/><path class="cls-16" d="M15.38,24.78a4.48,4.48,0,0,0,.62-2.2,4.92,4.92,0,0,0-.47-2.23l0,0a2.82,2.82,0,0,1,.58,1.06,3.45,3.45,0,0,1,.17,1.2,3.29,3.29,0,0,1-.24,1.2,2.61,2.61,0,0,1-.66,1Z"/><path class="cls-17" d="M13.57,21.05c.11.3.18.56.27.84s.15.53.25.79.18.51.28.78.21.52.31.81l0,0a4.48,4.48,0,0,1-.87-1.51,4.87,4.87,0,0,1-.25-1.73Z"/><path class="cls-18" d="M41,18.25A4.68,4.68,0,0,0,39,17.05l-2-.65-.93-.27c-4-1.14-4.6-1.46-4.39-2.57l.12-.62c-9.52-1.79-16.6-1.85-20.47,0S7.75,16.41,9,18.14c.77,1.06,1,2.87,1.69,4.25l.81.11c.91-1.32,4.59-2.91,11.14-3.18,8.2-.35,12,2.54,15.81,3a2.48,2.48,0,0,0,2.83-1.81V18.87Z"/><path class="cls-3" d="M37,16.83a17.76,17.76,0,0,1-5-1.54c-1-.58-.91-1.51-.72-2.46l.56.11c-.15.75-.21,1.41.54,1.84a18.62,18.62,0,0,0,4.26,1.45l.41.12Z"/><path class="cls-5" d="M31.85,13c-1.33-.2-2.66-.38-4-.53s-2.66-.31-4-.41a41.11,41.11,0,0,0-8,0A15.65,15.65,0,0,0,12,13a13.2,13.2,0,0,0-1.76.89,5.14,5.14,0,0,0-1.46,1.23,1.9,1.9,0,0,0-.37.82,2,2,0,0,0,.07.91,3.83,3.83,0,0,0,.41.87c.08.14.17.27.27.42a2.91,2.91,0,0,1,.26.45c.58,1.26.75,2.61,1.29,3.84l0,0c-.58-1.23-.8-2.58-1.41-3.78-.15-.3-.36-.56-.54-.85a4.21,4.21,0,0,1-.45-.9,2.31,2.31,0,0,1-.1-1,2.15,2.15,0,0,1,.4-.93,5.34,5.34,0,0,1,1.51-1.33,13.87,13.87,0,0,1,1.8-.92,15.47,15.47,0,0,1,3.92-.94,39.48,39.48,0,0,1,8.06,0c2.68.24,5.34.66,8,1.15Z"/><path class="cls-3" d="M35.1,21.5l-.75-.26c-1.25-.42-2.51-.83-3.79-1.15a27.13,27.13,0,0,0-3.9-.65,34.32,34.32,0,0,0-7.91.25,23.4,23.4,0,0,0-3.86.87,12.08,12.08,0,0,0-1.83.74,4.38,4.38,0,0,0-1.55,1.21l0,0A4.47,4.47,0,0,1,13,21.24a11.82,11.82,0,0,1,1.82-.8,22.48,22.48,0,0,1,3.87-.93,33.14,33.14,0,0,1,4-.39,29.53,29.53,0,0,1,4,.08,27.61,27.61,0,0,1,3.93.68c1.29.33,2.56.74,3.8,1.19l.72.25Z"/><path class="cls-19" d="M32.28,6.93c1-1.48,7.37.78,7.8.89l2.14.5a23.83,23.83,0,0,0,7.9.4,31.59,31.59,0,0,1-6.27,2.62l0,.41A19.27,19.27,0,0,0,50.32,13a32.32,32.32,0,0,1-7,1.11s-.79,0-1,0c0,0-.29-2.32-3.88-3.43S30.93,9,32.28,6.93Z"/><path class="cls-20" d="M32.28,6.93c-.8,1.91,1.62,2.19,5,3.12,2.69.72,5.51,2,4.93,4.54a26.53,26.53,0,0,0-.36,2.94l-.94.72A4.68,4.68,0,0,0,39,17.05l-2-.65-.93-.27c-4-1.14-4.6-1.46-4.39-2.57A11.58,11.58,0,0,0,32,9.37c-.09-1-.23-1.88.28-2.44Z"/><path class="cls-3" d="M50.12,8.72c-1,.56-2,1.07-3,1.54a23.58,23.58,0,0,1-3.2,1.19l-.06-.23A21.7,21.7,0,0,0,47,10.15C48.08,9.72,49.12,9.24,50.12,8.72Z"/><path class="cls-5" d="M40.17,7.91l-.18,0c-.48-.13-.94-.29-1.4-.42l0-.15L40,7.74l.24,0Z"/><path class="cls-5" d="M42.35,8.29c.64.14,1.29.25,1.95.35a23.61,23.61,0,0,0,5.82.08,23.69,23.69,0,0,1-5.83,0c-.64-.09-1.29-.19-1.93-.32Z"/><path class="cls-3" d="M50.32,13c-1.14.32-2.3.6-3.47.81a23.53,23.53,0,0,1-3.56.42V14a23.37,23.37,0,0,0,3.54-.29C48,13.54,49.17,13.31,50.32,13Z"/><path class="cls-5" d="M43.92,11.68a21.07,21.07,0,0,0,3.14,1,16.31,16.31,0,0,0,3.26.39,16.4,16.4,0,0,1-3.27-.32,19.57,19.57,0,0,1-3.19-.88Z"/><path class="cls-4" d="M37,16.42l-.41-.12c-.78-.22-1.55-.44-2.32-.68-.38-.12-.76-.24-1.14-.38a5,5,0,0,1-1.08-.54,1.09,1.09,0,0,1-.38-.49,1.39,1.39,0,0,1,0-.61c.07-.39.17-.78.23-1.18A10.62,10.62,0,0,0,32,10,10.8,10.8,0,0,1,32,7.62a1.37,1.37,0,0,1,.62-1,2.28,2.28,0,0,1,1.17-.28l0,.07a2.47,2.47,0,0,0-1.16.3,1.28,1.28,0,0,0-.52.94A11.89,11.89,0,0,0,32.27,10a9.66,9.66,0,0,1-.06,2.46c-.06.41-.15.8-.22,1.19a.7.7,0,0,0,.29.79,4.93,4.93,0,0,0,1,.51c.36.14.74.27,1.12.39.76.25,1.53.46,2.29.71l.4.13Z"/><path class="cls-4" d="M39.35,17.05a6,6,0,0,1,.71.38,3.25,3.25,0,0,1,.92.81l0,0a3.18,3.18,0,0,0-.94-.73,6.27,6.27,0,0,0-.58-.29Z"/><path class="cls-21" d="M38.44,7a4.44,4.44,0,0,0,.07-5.81,4.45,4.45,0,0,0-.85,4.7Q38.07,6.41,38.44,7Z"/><path class="cls-8" d="M37.75,6.14a4.59,4.59,0,0,1-.4-2.61A4.27,4.27,0,0,1,38.5,1.16l0,0a5.45,5.45,0,0,0-.31.58,3.37,3.37,0,0,0-.25.59,5.73,5.73,0,0,0-.3,1.22,6.51,6.51,0,0,0,0,1.25,7.61,7.61,0,0,0,.17,1.3Z"/><path class="cls-7" d="M38.52,1.16a3.23,3.23,0,0,1,1,1.32,3.93,3.93,0,0,1,.32,1.66,4.08,4.08,0,0,1-.39,1.65A4.73,4.73,0,0,1,39,6.5a3.22,3.22,0,0,1-.61.56l0,0a4.2,4.2,0,0,0,1.16-2.91,4.21,4.21,0,0,0-1-2.94Z"/><path class="cls-22" d="M41.7,5.61a4.44,4.44,0,0,0-1.82,4.06,14.38,14.38,0,0,1,.54,1.56l.08,0A4.43,4.43,0,0,0,41.7,5.61Z"/><path class="cls-7" d="M41.72,5.6a3.14,3.14,0,0,1,.72,1.46,4,4,0,0,1,0,1.66,3.81,3.81,0,0,1-.68,1.52,3.65,3.65,0,0,1-.56.62,3.07,3.07,0,0,1-.69.43l0,0a4.24,4.24,0,0,0,1.64-2.6,4.27,4.27,0,0,0-.44-3Z"/><path class="cls-8" d="M39.9,10a4.56,4.56,0,0,1,.26-2.45A4.17,4.17,0,0,1,41.7,5.59v0c-.13.17-.27.31-.39.48a5.36,5.36,0,0,0-.34.49,6.89,6.89,0,0,0-.53,1,8.08,8.08,0,0,0-.34,1.12A9,9,0,0,0,39.94,10Z"/><path class="cls-23" d="M43.79,11a4.2,4.2,0,0,0-2,1.36,2.53,2.53,0,0,1,.47,2.21,8.9,8.9,0,0,0-.15.88A4.45,4.45,0,0,0,43.79,11Z"/><path class="cls-7" d="M43.81,11a2.79,2.79,0,0,1,.3,1.27,3.67,3.67,0,0,1-.25,1.31,3.5,3.5,0,0,1-.69,1.12,4.06,4.06,0,0,1-.48.45,2.45,2.45,0,0,1-.57.32l0,0a4.62,4.62,0,0,0,1.47-2A4.27,4.27,0,0,0,43.78,11Z"/><path class="cls-8" d="M41.67,12.28a3.72,3.72,0,0,1,.46-.43,3.46,3.46,0,0,1,.52-.36A3.67,3.67,0,0,1,43.79,11a3.77,3.77,0,0,0-1,.6,3.38,3.38,0,0,0-.44.4,4.22,4.22,0,0,0-.38.46Z"/><path class="cls-24" d="M39.93,11c0-.19-.12-.38-.18-.57a4.43,4.43,0,0,0-4.3-2A3.85,3.85,0,0,0,36,9.74c.42.09.86.19,1.31.31A13.1,13.1,0,0,1,40,11Z"/><path class="cls-7" d="M35.45,8.38a2.55,2.55,0,0,1,1.25-.21A3.54,3.54,0,0,1,38,8.48,3.58,3.58,0,0,1,39,9.23a4.74,4.74,0,0,1,.4.49,3.06,3.06,0,0,1,.29.57l0,0a4.54,4.54,0,0,0-1.85-1.54,4.11,4.11,0,0,0-2.37-.36Z"/><path class="cls-8" d="M35.89,9.8c0-.11-.11-.2-.16-.32s-.09-.24-.13-.36a4.5,4.5,0,0,1-.15-.73,3.69,3.69,0,0,0,.3.67,4.73,4.73,0,0,0,.45.71Z"/><path class="cls-25" d="M36.54,4.58A4.43,4.43,0,0,1,32.84,0,4.42,4.42,0,0,1,36.54,4.58Z"/><path class="cls-7" d="M32.85,0a3.07,3.07,0,0,1,1.62.35,4,4,0,0,1,1.31,1.06,4,4,0,0,1,.77,1.51,3.87,3.87,0,0,1,.12.83,3.32,3.32,0,0,1-.11.83h0a4.26,4.26,0,0,0-1-3A4.24,4.24,0,0,0,32.84,0Z"/><path class="cls-8" d="M36.33,4.56a4.34,4.34,0,0,1-2.59-1.62A4.25,4.25,0,0,1,32.83,0h0A6,6,0,0,0,33,.78a4.13,4.13,0,0,0,.24.7A5.64,5.64,0,0,0,34,2.74a5.63,5.63,0,0,0,1,1,6.47,6.47,0,0,0,1.31.75Z"/><path class="cls-26" d="M38.34,7.43a4.42,4.42,0,0,1-5.41-2.29A4.42,4.42,0,0,1,38.34,7.43Z"/><path class="cls-8" d="M38.35,7.44a4.27,4.27,0,0,1-3.16-.1,4.26,4.26,0,0,1-2.27-2.19h0a5,5,0,0,0,.5.62,3.92,3.92,0,0,0,.56.52,5.77,5.77,0,0,0,1.31.77,5.19,5.19,0,0,0,1.45.39,5.53,5.53,0,0,0,1.57,0Z"/><path class="cls-7" d="M32.93,5.13a2.86,2.86,0,0,1,1.28-.46,3.79,3.79,0,0,1,1.38.12,3.68,3.68,0,0,1,1.24.61,5.57,5.57,0,0,1,.51.46,3.14,3.14,0,0,1,.38.57l0,0a4.55,4.55,0,0,0-2.19-1.36,4.18,4.18,0,0,0-2.57.07Z"/><path class="cls-27" d="M39.93,11a15,15,0,0,0-1.54-3.62A26,26,0,0,0,35.83,3.8l.06,0A24.78,24.78,0,0,1,38.6,7.23a14.76,14.76,0,0,1,1.83,4Z"/><path class="cls-8" d="M39.92,11c-.11-.33-.24-.65-.37-1s-.27-.64-.42-.95a18.7,18.7,0,0,0-1-1.82c-.34-.59-.74-1.16-1.13-1.73-.19-.29-.39-.57-.6-.85l-.61-.84h0a25.9,25.9,0,0,1,2.45,3.35A14.81,14.81,0,0,1,39.94,11Z"/><path class="cls-7" d="M35.9,3.74a24.82,24.82,0,0,1,2.74,3.48,15.44,15.44,0,0,1,1.81,4h0c-.16-.34-.3-.68-.47-1s-.31-.66-.48-1a19.79,19.79,0,0,0-1.1-1.89c-.37-.62-.79-1.22-1.22-1.82-.2-.3-.42-.6-.64-.89s-.43-.61-.63-.92Z"/><path class="cls-5" d="M32.08,7.28a1.13,1.13,0,0,0,.3,1,2.72,2.72,0,0,0,.86.6,11.54,11.54,0,0,0,2,.67,31.48,31.48,0,0,1,4,1.14,7.38,7.38,0,0,1,1.84,1,3.07,3.07,0,0,1,1.18,1.69,2.65,2.65,0,0,1,0,1.05c-.07.34-.14.68-.18,1-.09.69-.15,1.39-.22,2.09h0c.06-.7.09-1.4.15-2.1,0-.35.1-.71.17-1a2.4,2.4,0,0,0-.05-1A3,3,0,0,0,41,11.78a7.2,7.2,0,0,0-1.81-1,33.61,33.61,0,0,0-4-1.17,12.15,12.15,0,0,1-2-.72,2.94,2.94,0,0,1-.86-.63,1.22,1.22,0,0,1-.28-1Z"/><path class="cls-28" d="M15.07,25.45a4.39,4.39,0,0,0-3.88,1.44,4.43,4.43,0,0,0,5.6-.44A13.49,13.49,0,0,1,15.07,25.45Z"/><path class="cls-8" d="M15.22,25.48c-.38.05-.74.1-1.09.17a8.51,8.51,0,0,0-1,.28,6.76,6.76,0,0,0-1,.41,10.67,10.67,0,0,0-1,.56l0,0A4.07,4.07,0,0,1,13,25.63a4.65,4.65,0,0,1,2.22-.18Z"/><path class="cls-7" d="M11.2,26.88a4.46,4.46,0,0,0,5.64-.5l0,0a3.3,3.3,0,0,1-.51.61,4.42,4.42,0,0,1-.67.46,3.83,3.83,0,0,1-1.55.47,4,4,0,0,1-1.62-.18,3.09,3.09,0,0,1-1.34-.87Z"/><path class="cls-29" d="M19.11,27.34a4.52,4.52,0,0,0-3.65,2.38A4.5,4.5,0,0,0,21,27.78,15.51,15.51,0,0,1,19.11,27.34Z"/><path class="cls-8" d="M21.07,27.66a5.79,5.79,0,0,0-1.59-.11,5.52,5.52,0,0,0-1.51.34,5.73,5.73,0,0,0-1.36.72,4.07,4.07,0,0,0-.59.51,4.53,4.53,0,0,0-.54.61h0a4.47,4.47,0,0,1,5.63-2.09Z"/><path class="cls-7" d="M15.47,29.71a4.55,4.55,0,0,0,5.59-2.07h0a3.18,3.18,0,0,1-.34.78,3.78,3.78,0,0,1-.54.67,4.08,4.08,0,0,1-1.45.92,4.29,4.29,0,0,1-1.7.25,3.28,3.28,0,0,1-1.6-.53Z"/><path class="cls-30" d="M23.62,28.05a4.91,4.91,0,0,0-3.75,3.35,4.88,4.88,0,0,0,5.54-3.34l-.18,0C24.69,28.06,24.16,28.07,23.62,28.05Z"/><path class="cls-8" d="M25.4,28.07a6.07,6.07,0,0,0-1.71.2,5.8,5.8,0,0,0-1.54.65A6.29,6.29,0,0,0,20.85,30a5,5,0,0,0-.52.67,5.59,5.59,0,0,0-.44.76h0A4.84,4.84,0,0,1,25.41,28Z"/><path class="cls-7" d="M19.88,31.39a4.73,4.73,0,0,0,3.38-.64,4.67,4.67,0,0,0,2.13-2.7h0a3,3,0,0,1-.21.89,4.51,4.51,0,0,1-.43.81A4.46,4.46,0,0,1,23.42,31a4.7,4.7,0,0,1-1.74.61,3.58,3.58,0,0,1-1.81-.22Z"/><path class="cls-31" d="M18.52,26.34a19.13,19.13,0,0,0,2,.69,4.92,4.92,0,0,0-3.68-5.11A4.88,4.88,0,0,0,18.52,26.34Z"/><path class="cls-7" d="M20.47,27.12a4.81,4.81,0,0,0-.89-3.26,4.72,4.72,0,0,0-2.77-1.92v0a3.31,3.31,0,0,1,.88.15,5.07,5.07,0,0,1,.82.38,4.5,4.5,0,0,1,1.33,1.24,4.61,4.61,0,0,1,.72,1.67,3.57,3.57,0,0,1-.06,1.78Z"/><path class="cls-8" d="M16.82,21.92A8.23,8.23,0,0,0,17,23.28a6.9,6.9,0,0,0,.45,1.25,7.79,7.79,0,0,0,.68,1.14,5.13,5.13,0,0,0,.42.53c.14.18.31.34.47.52l0,0a5.07,5.07,0,0,1-1.84-2.08,4.62,4.62,0,0,1-.4-2.74Z"/><path class="cls-32" d="M23.75,27.71c.39.06.78.1,1.17.14a5.21,5.21,0,0,0-4.67-5A5.26,5.26,0,0,0,23.75,27.71Z"/><path class="cls-7" d="M24.91,28a5.23,5.23,0,0,0-4.66-5.09v0a3.58,3.58,0,0,1,1,0,5.36,5.36,0,0,1,.94.29A4.89,4.89,0,0,1,24.78,26,3.86,3.86,0,0,1,25,28Z"/><path class="cls-8" d="M20.27,22.86a6,6,0,0,0,.55,1.76,6.25,6.25,0,0,0,1,1.48,6.4,6.4,0,0,0,1.39,1.15,4.79,4.79,0,0,0,.82.4,6.2,6.2,0,0,0,.89.3v0a5.11,5.11,0,0,1-3.33-1.66,5,5,0,0,1-1.36-3.46Z"/><path class="cls-33" d="M13.26,23.9a10.24,10.24,0,0,1-.94-1.13,4.43,4.43,0,0,0-4,.2,4.46,4.46,0,0,0,5.42,1.39C13.57,24.21,13.41,24.06,13.26,23.9Z"/><path class="cls-7" d="M12.36,22.8a4.61,4.61,0,0,0-2-.38,4.12,4.12,0,0,0-2,.56v0a2.33,2.33,0,0,1,.91-.63,3.31,3.31,0,0,1,1.09-.23,3.4,3.4,0,0,1,1.1.15,2.63,2.63,0,0,1,1,.53Z"/><path class="cls-8" d="M8.33,23a6.14,6.14,0,0,0,1.19.87,5.73,5.73,0,0,0,1.32.51,5.65,5.65,0,0,0,1.42.19,4.36,4.36,0,0,0,.72-.05,6.37,6.37,0,0,0,.74-.13v0a4.34,4.34,0,0,1-3,.28A4.3,4.3,0,0,1,8.3,23Z"/><path class="cls-34" d="M38.59,22.77a10.24,10.24,0,0,1-.94,1.13c-.15.16-.31.31-.47.46A4.46,4.46,0,0,0,42.6,23,4.43,4.43,0,0,0,38.59,22.77Z"/><path class="cls-8" d="M38.41,22.84a4.54,4.54,0,0,1,2.11-.49,4.14,4.14,0,0,1,2.09.61l0,0c-.37-.09-.71-.17-1.05-.22a7,7,0,0,0-1-.09,9,9,0,0,0-1,0l-1.07.15Z"/><path class="cls-7" d="M42.61,23a3.14,3.14,0,0,1-1,1.24,3.93,3.93,0,0,1-1.46.69,4,4,0,0,1-1.61.06,5,5,0,0,1-.78-.23,3.16,3.16,0,0,1-.68-.41l0,0a4.24,4.24,0,0,0,3,.3A4.19,4.19,0,0,0,42.58,23Z"/><path class="cls-35" d="M35.84,25.45a13,13,0,0,1-1.73,1,4.44,4.44,0,0,0,5.61.44A4.39,4.39,0,0,0,35.84,25.45Z"/><path class="cls-8" d="M39.73,26.9a4.38,4.38,0,0,1-5.85-.68l0,0a5.5,5.5,0,0,0,.66.45,4,4,0,0,0,.68.35,5.47,5.47,0,0,0,1.47.37,5.1,5.1,0,0,0,1.51,0,5.57,5.57,0,0,0,1.49-.46Z"/><path class="cls-7" d="M35.6,25.46a2.8,2.8,0,0,1,1.15-.26A3.38,3.38,0,0,1,39,26a2.46,2.46,0,0,1,.73.93l0,0a4.07,4.07,0,0,0-1.87-1.23,4.6,4.6,0,0,0-2.24-.17Z"/><path class="cls-36" d="M31.8,27.34a15.51,15.51,0,0,1-1.88.44,4.5,4.5,0,0,0,5.53,1.94A4.52,4.52,0,0,0,31.8,27.34Z"/><path class="cls-8" d="M35.46,29.74a4.37,4.37,0,0,1-3.22,0,4.32,4.32,0,0,1-2.41-2.13h0a5.34,5.34,0,0,0,.54.61,4.15,4.15,0,0,0,.6.51,5.37,5.37,0,0,0,1.36.72,5.52,5.52,0,0,0,1.5.33,5.73,5.73,0,0,0,1.59-.1Z"/><path class="cls-7" d="M31.61,27.32a2.84,2.84,0,0,1,1.23,0,3.75,3.75,0,0,1,1.16.46,3.55,3.55,0,0,1,.94.83,2.62,2.62,0,0,1,.52,1.12h0A4.27,4.27,0,0,0,33.84,28a4.63,4.63,0,0,0-2.23-.69Z"/><path class="cls-37" d="M27.29,28.05c-.54,0-1.07,0-1.61,0l-.18,0A4.88,4.88,0,0,0,31,31.4,4.91,4.91,0,0,0,27.29,28.05Z"/><path class="cls-8" d="M31,31.42a4.84,4.84,0,0,1-5.55-3.36h0a5.59,5.59,0,0,0,.44.76,4.34,4.34,0,0,0,.53.67,6,6,0,0,0,1.29,1.06,6,6,0,0,0,3.26.85Z"/><path class="cls-7" d="M27.09,28a3.2,3.2,0,0,1,1.4.2,4.47,4.47,0,0,1,1.25.72A4.11,4.11,0,0,1,30.65,30a4.88,4.88,0,0,1,.29.66,3.29,3.29,0,0,1,.11.7h0a4.56,4.56,0,0,0-1.49-2.24A5,5,0,0,0,27.08,28Z"/><path class="cls-38" d="M39,20.84a9.25,9.25,0,0,0,.49-1s0,0,0-.05a4.43,4.43,0,0,0-2.09-4.46A4.43,4.43,0,0,0,39,20.84Z"/><path class="cls-8" d="M39,20.88a4.36,4.36,0,0,1-1.85-2.48,4.32,4.32,0,0,1,.24-3.08l0,0a5.31,5.31,0,0,0-.14.76,3.83,3.83,0,0,0-.05.75,5.5,5.5,0,0,0,.23,1.46A5.59,5.59,0,0,0,38,19.66a6.34,6.34,0,0,0,1,1.19Z"/><path class="cls-7" d="M37.4,15.32a2.74,2.74,0,0,1,1.2.72,3.71,3.71,0,0,1,1.12,2.56,5.48,5.48,0,0,1,0,.7,3.07,3.07,0,0,1-.21.67h0a4.44,4.44,0,0,0-.32-2.62,4.22,4.22,0,0,0-1.73-2Z"/><path class="cls-39" d="M36.63,23.74a4.69,4.69,0,0,0,0-5,4.7,4.7,0,0,0-1.2,5.9A11.76,11.76,0,0,0,36.63,23.74Z"/><path class="cls-8" d="M35.58,24.91a4.65,4.65,0,0,1,1.06-6.16l0,0a6.26,6.26,0,0,0-.52.66,5.09,5.09,0,0,0-.42.71,5.56,5.56,0,0,0-.48,1.53,5.73,5.73,0,0,0-.06,1.6,6.28,6.28,0,0,0,.42,1.61Z"/><path class="cls-7" d="M36.66,18.76a2.9,2.9,0,0,1,.76,1.18,3.75,3.75,0,0,1,.22,1.41,3.89,3.89,0,0,1-.3,1.39,4.71,4.71,0,0,1-.33.63,2.92,2.92,0,0,1-.46.53l0,0a4.78,4.78,0,0,0,.79-2.54,4.4,4.4,0,0,0-.68-2.57Z"/><path class="cls-40" d="M32.39,26.34a4.88,4.88,0,0,0,1.71-4.42A4.92,4.92,0,0,0,30.42,27,19.13,19.13,0,0,0,32.39,26.34Z"/><path class="cls-8" d="M30.4,27.08a4.86,4.86,0,0,1,.9-3.27,4.71,4.71,0,0,1,2.8-1.9v0a6.44,6.44,0,0,0-1.44.86A6.25,6.25,0,0,0,31.56,24a6.08,6.08,0,0,0-.76,1.45,5.93,5.93,0,0,0-.36,1.64Z"/><path class="cls-7" d="M34.12,21.92a3,3,0,0,1,.23,1.3,3.91,3.91,0,0,1-.3,1.31,3.69,3.69,0,0,1-.72,1.13,4.16,4.16,0,0,1-.48.46,4.76,4.76,0,0,1-.57.34l0,0a5.08,5.08,0,0,0,1.5-2,4.62,4.62,0,0,0,.33-2.49Z"/><path class="cls-41" d="M27.16,27.71a5.26,5.26,0,0,0,3.5-4.85,5.22,5.22,0,0,0-4.68,5C26.38,27.81,26.77,27.77,27.16,27.71Z"/><path class="cls-8" d="M26,27.86a5.17,5.17,0,0,1,4.69-5v0a6.48,6.48,0,0,0-.88.29,5.08,5.08,0,0,0-.81.4,5.94,5.94,0,0,0-1.37,1.12,6.12,6.12,0,0,0-1,1.45A6.19,6.19,0,0,0,26,27.86Z"/><path class="cls-7" d="M30.67,22.86a3.5,3.5,0,0,1-.06,1.67,4.41,4.41,0,0,1-.75,1.52,4.58,4.58,0,0,1-1.25,1.15,6.59,6.59,0,0,1-.75.38,4.54,4.54,0,0,1-.81.19v0a5.26,5.26,0,0,0,2.57-1.88,4.89,4.89,0,0,0,1-3Z"/><path class="cls-42" d="M40.69,18a12.23,12.23,0,0,1-.62,2.12,11.49,11.49,0,0,1-2.42,3.81,12.18,12.18,0,0,1-1.72,1.49,13.64,13.64,0,0,1-2,1.13,15.87,15.87,0,0,1-4.29,1.3,18.28,18.28,0,0,1-4.43.18v-.08a27,27,0,0,0,4.32-.66,18.44,18.44,0,0,0,4-1.48,14.08,14.08,0,0,0,1.83-1.1,11.69,11.69,0,0,0,1.63-1.35,10.6,10.6,0,0,0,2.39-3.49,11.74,11.74,0,0,0,.7-2.25Z"/><path class="cls-43" d="M12.43,21.65a10.82,10.82,0,0,0,1.41,1.68,11.69,11.69,0,0,0,1.63,1.35,14.08,14.08,0,0,0,1.83,1.1,18.25,18.25,0,0,0,4,1.48,27,27,0,0,0,4.32.66V28a18.39,18.39,0,0,1-4.44-.18,15.8,15.8,0,0,1-4.28-1.3,13.64,13.64,0,0,1-2-1.13,11.64,11.64,0,0,1-1.72-1.49,11.51,11.51,0,0,1-1.4-1.79Z"/><path class="cls-8" d="M25.66,28A17.93,17.93,0,0,1,17.91,27,13.3,13.3,0,0,1,14.48,25a11.59,11.59,0,0,1-2.62-2.92h0A12.7,12.7,0,0,0,18,26.8a17.45,17.45,0,0,0,3.77,1,18.38,18.38,0,0,0,2,.19c.65,0,1.31,0,2,0Z"/><path class="cls-7" d="M12.45,21.64a11.58,11.58,0,0,0,2.61,2.71,15.78,15.78,0,0,0,3.26,1.88,23.13,23.13,0,0,0,7.34,1.67v0c-.64,0-1.27,0-1.9-.08s-1.26-.15-1.89-.26a18.36,18.36,0,0,1-3.67-1.08,14.43,14.43,0,0,1-3.29-2,13.46,13.46,0,0,1-1.39-1.33,10,10,0,0,1-1.1-1.56Z"/><path class="cls-8" d="M25.26,27.91a27,27,0,0,0,4.81-.79,17.73,17.73,0,0,0,4.49-1.88A12.61,12.61,0,0,0,38.2,22a10.91,10.91,0,0,0,1.95-4.43h0A11.36,11.36,0,0,1,39.5,20a11,11,0,0,1-1.21,2.14,12.72,12.72,0,0,1-3.65,3.28,17.41,17.41,0,0,1-4.54,1.85c-.8.21-1.6.36-2.41.49s-1.62.18-2.43.22Z"/><path class="cls-7" d="M40.71,18a12.1,12.1,0,0,1-2,4.63A11.94,11.94,0,0,1,35,26a15.4,15.4,0,0,1-4.73,1.74,18.58,18.58,0,0,1-5.05.28v0a23.6,23.6,0,0,0,2.52-.11,18.65,18.65,0,0,0,2.47-.38,15.79,15.79,0,0,0,4.62-1.77,12.32,12.32,0,0,0,5-5.4A14.77,14.77,0,0,0,40.68,18Z"/><path class="cls-44" d="M40.55,18.6a12.93,12.93,0,0,1-.48,1.49c-.08.22-.18.43-.27.65a4.46,4.46,0,0,0,4.34-3.69A4.38,4.38,0,0,0,40.55,18.6Z"/><path class="cls-7" d="M44.16,17.05a3.1,3.1,0,0,1-.34,1.57,4,4,0,0,1-1,1.3,4.22,4.22,0,0,1-1.45.77,4.43,4.43,0,0,1-.81.14,3.56,3.56,0,0,1-.8-.07v0a4.26,4.26,0,0,0,2.85-1A4.21,4.21,0,0,0,44.12,17Z"/><path class="cls-8" d="M40.53,18.59a4.75,4.75,0,0,1,1.62-1.22,4.11,4.11,0,0,1,2-.34v0l-1,.26a8.61,8.61,0,0,0-.89.34c-.29.13-.57.28-.86.44l-.86.51Z"/></g></g></svg>