<svg xmlns="http://www.w3.org/2000/svg" viewBox="0 0 32.7 33.37"><defs><style>.cls-1{fill:#517bbc;}.cls-1,.cls-2,.cls-3,.cls-4{fill-rule:evenodd;}.cls-2{fill:#32a651;}.cls-3{fill:#f6b917;}.cls-4{fill:#e74233;}</style></defs><title>google_1</title><g id="Layer_2" data-name="Layer 2"><g id="Layer_1-2" data-name="Layer 1"><path class="cls-1" d="M32.7,17.06a19.84,19.84,0,0,0-.3-3.41H16.68V20.1h9a7.67,7.67,0,0,1-3.33,5v4.18h5.39a16.24,16.24,0,0,0,5-12.26Z"/><path class="cls-2" d="M16.68,33.37a15.91,15.91,0,0,0,11-4l-5.39-4.18a10.06,10.06,0,0,1-15-5.29H1.77v4.33a16.69,16.69,0,0,0,14.91,9.19Z"/><path class="cls-3" d="M7.35,19.85a9.75,9.75,0,0,1,0-6.34V9.19H1.77a16.75,16.75,0,0,0,0,15l5.58-4.33Z"/><path class="cls-4" d="M16.68,6.64a9,9,0,0,1,6.38,2.49l4.79-4.78A16,16,0,0,0,16.68,0,16.69,16.69,0,0,0,1.77,9.19l5.58,4.32a9.94,9.94,0,0,1,9.33-6.87Z"/></g></g></svg>