<svg xmlns="http://www.w3.org/2000/svg" viewBox="0 0 67.01 17.47"><defs><style>.cls-1{fill:#3b2466;}.cls-2{fill:#4db748;}</style></defs><title>logo</title><g id="Layer_2" data-name="Layer 2"><g id="Layer_1-2" data-name="Layer 1"><path class="cls-1" d="M38.7,4.44a3.07,3.07,0,0,0,0,6.14,3.13,3.13,0,0,0,1.71-.51V12.3a1.71,1.71,0,0,1-3.41,0h0a.69.69,0,0,0-1.37,0h0a3.07,3.07,0,0,0,6.14,0V7.51A3.07,3.07,0,0,0,38.7,4.44Zm0,4.78a1.71,1.71,0,1,1,1.71-1.71A1.71,1.71,0,0,1,38.7,9.22Z"/><path class="cls-1" d="M14.73,4.13a.86.86,0,0,0,0-1.72.86.86,0,0,0,0,1.72Z"/><path class="cls-1" d="M19.89,4.13A.86.86,0,1,0,19,3.27.86.86,0,0,0,19.89,4.13Z"/><path class="cls-1" d="M6.32,15.59a.86.86,0,1,0,.85.86A.86.86,0,0,0,6.32,15.59Z"/><path class="cls-1" d="M4.13,15.59a.86.86,0,1,0,.86.86A.86.86,0,0,0,4.13,15.59Z"/><circle class="cls-1" cx="29.77" cy="3.27" r="0.86"/><path class="cls-1" d="M32,4.44l-.24,0H27.2A3,3,0,0,0,25.5,5V.77a.68.68,0,1,0-1.36,0V9.22h-1.7A3.1,3.1,0,0,0,23,7.51a3.07,3.07,0,1,0-6.13,0,3.1,3.1,0,0,0,.51,1.71H15.41V5.13a.68.68,0,1,0-1.36,0V9.22H11.13V7.52A3.07,3.07,0,1,0,6,9.82l.19-.13L6,9.82a3,3,0,0,0,1.79.76H8a1.71,1.71,0,0,1-.2,3.4H3.06a1.7,1.7,0,0,1-.25-3.39.69.69,0,1,0,0-1.37l-.16,0a3.07,3.07,0,0,0,.42,6.11H7.84a3.07,3.07,0,0,0,2.55-4.78H32a3.07,3.07,0,0,0,0-6.14ZM19.89,5.81a1.71,1.71,0,0,1,0,3.41,1.71,1.71,0,1,1,0-3.41ZM7.74,9.22h.07a1.7,1.7,0,1,1,2-1.69V9.89a3.05,3.05,0,0,0-1.67-.66H7.74ZM6.3,9.64l.12-.07Zm.24-.13.09,0Zm.23-.1.08,0ZM7,9.34l.07,0Zm.24-.06.07,0Zm.24,0h0ZM32,9.22H27.06a1.7,1.7,0,0,1,.14-3.4H32a1.71,1.71,0,0,1,0,3.41Z"/><path class="cls-1" d="M14.44,15.26c0,.07,0,.09-.11.09H14c-.07,0-.09,0-.1-.09l-.41-1.61a1.74,1.74,0,0,1-.06-.27l-.06.27-.47,1.61c0,.06,0,.09-.1.09h-.37c-.07,0-.09,0-.11-.09l-.67-2.5c0-.07,0-.11.09-.11H12c.07,0,.1,0,.12.11l.45,1.7a2.28,2.28,0,0,1,0,.24l.06-.24.47-1.7c0-.06,0-.11.12-.11h.32c.07,0,.1,0,.11.11l.43,1.7c0,.13,0,.21.05.23a2,2,0,0,1,.05-.23l.45-1.7c0-.06.05-.11.12-.11h.26c.07,0,.11,0,.09.11Z"/><path class="cls-1" d="M17.27,12.65c.08,0,.1,0,.1.11V13a.15.15,0,0,1,0,.09l-1.27,1.87h1.28c.07,0,.1,0,.1.1v.22c0,.08,0,.1-.1.1H15.55c-.07,0-.1,0-.1-.1V15a.15.15,0,0,1,0-.08l1.26-1.87h-1.1c-.07,0-.11,0-.11-.1v-.22a.1.1,0,0,1,.11-.11Z"/><path class="cls-1" d="M18.24,12.66v-.42c0-.44.31-.74,1.08-.74h0c.07,0,.11,0,.11.1v.23a.1.1,0,0,1-.11.11h0c-.41,0-.56.13-.56.36v.36h.54c.07,0,.1,0,.1.1V13c0,.08,0,.11-.1.11h-.54v2.16c0,.07,0,.1-.1.1h-.32c-.07,0-.1,0-.1-.1V13.09h-.32c-.07,0-.1,0-.1-.11v-.19c0-.07,0-.1.1-.1l.29,0Z"/><path class="cls-1" d="M20.28,12.65c.08,0,.1,0,.11.11v.17a1.36,1.36,0,0,1,.9-.32.68.68,0,0,1,.77.7v1.94c0,.07,0,.1-.1.1h-.32c-.07,0-.1,0-.1-.1V13.43c0-.22-.1-.36-.4-.36a1.26,1.26,0,0,0-.74.28v1.9c0,.07,0,.1-.1.1H20c-.07,0-.1,0-.1-.1V12.76c0-.07,0-.11.1-.11Z"/><path class="cls-1" d="M23.33,12.15c0,.07,0,.1-.1.1h-.32c-.07,0-.1,0-.1-.1v-.49c0-.08,0-.11.1-.11h.32c.07,0,.1,0,.1.11Zm0,3.1c0,.07,0,.1-.1.1h-.32c-.07,0-.1,0-.1-.1V12.76c0-.07,0-.11.1-.11h.32c.07,0,.1,0,.1.11Z"/><path class="cls-1" d="M24.61,15.25c0,.08,0,.1-.1.1h-.32c-.08,0-.11,0-.11-.1v-.43c0-.08,0-.11.11-.11h.32c.07,0,.1,0,.1.11Z"/><path class="cls-1" d="M27.39,13.36v.09c0,.08,0,.11-.09.11H27c-.07,0-.1,0-.1-.11v-.06c0-.22-.13-.36-.54-.36s-.53.14-.53.36v1.22c0,.23.12.36.53.36s.54-.13.54-.36V14.5c0-.07,0-.1.1-.1h.3c.07,0,.09,0,.09.1v.15c0,.45-.27.75-1,.75s-1-.3-1-.75V13.36c0-.45.28-.75,1-.75S27.39,12.91,27.39,13.36Z"/><path class="cls-1" d="M27.94,13.36c0-.45.33-.75,1.09-.75s1.09.3,1.09.75v1.29c0,.45-.32.75-1.09.75s-1.09-.3-1.09-.75Zm1.67,0c0-.23-.17-.37-.58-.37s-.57.14-.57.37v1.21c0,.23.16.36.57.36s.58-.13.58-.36Z"/><path class="cls-1" d="M31.23,12.65c.07,0,.1,0,.1.11v.17a1.32,1.32,0,0,1,.87-.32.72.72,0,0,1,.7.37,1.33,1.33,0,0,1,.93-.37.69.69,0,0,1,.78.7v1.94c0,.07,0,.1-.11.1H34.2c-.07,0-.11,0-.11-.1V13.43c0-.22-.1-.36-.4-.36a1,1,0,0,0-.71.29v1.89c0,.07,0,.1-.1.1h-.31c-.07,0-.11,0-.11-.1V13.43c0-.22-.1-.36-.4-.36a1.13,1.13,0,0,0-.71.28v1.9c0,.07,0,.1-.1.1h-.31c-.08,0-.1,0-.1-.1V12.76c0-.07,0-.11.1-.11Z"/><path class="cls-2" d="M53.9,2.17a2.71,2.71,0,1,1-2.71,2.71A2.72,2.72,0,0,1,53.9,2.17M53.9,0a4.88,4.88,0,1,0,4.88,4.88A4.87,4.87,0,0,0,53.9,0Z"/><path class="cls-2" d="M56.61,12.48a2.71,2.71,0,1,1-5.42,0h0a1.09,1.09,0,0,0-2.17,0h0a4.88,4.88,0,0,0,9.76,0Z"/><path class="cls-2" d="M62.13,0a4.88,4.88,0,0,0-.65,9.72l.25.87h.81l.25-.87a5.1,5.1,0,0,0,2.06-.78v3.54a2.72,2.72,0,0,1-5.43,0h0a1.09,1.09,0,0,0-2.17,0h0a4.88,4.88,0,0,0,9.76,0V4.88A4.87,4.87,0,0,0,62.13,0Zm0,7.59a2.71,2.71,0,1,1,2.72-2.71A2.72,2.72,0,0,1,62.13,7.59Z"/><polygon class="cls-2" points="62.13 15.06 62.57 14.3 63.01 13.54 63.01 13.54 62.54 10.92 61.73 10.92 61.26 13.54 61.26 13.54 61.7 14.3 62.13 15.06"/><circle class="cls-2" cx="57.69" cy="12.48" r="1.09"/><path class="cls-1" d="M45.68,17.47a.29.29,0,0,1-.29-.29V.31a.3.3,0,0,1,.59,0V17.18A.29.29,0,0,1,45.68,17.47Z"/></g></g></svg>